<?xml version="1.0" standalone="no"?>
<!DOCTYPE svg PUBLIC "-//W3C//DTD SVG 20010904//EN"
 "http://www.w3.org/TR/2001/REC-SVG-20010904/DTD/svg10.dtd">
<svg version="1.0" xmlns="http://www.w3.org/2000/svg"
 width="200.000000pt" height="200.000000pt" viewBox="0 0 200.000000 200.000000"
 preserveAspectRatio="xMidYMid meet">
<metadata>
Created by potrace 1.11, written by Peter Selinger 2001-2013
</metadata>
<g transform="translate(0.000000,200.000000) scale(0.100000,-0.100000)"
fill="#000000" stroke="none">
<path d="M1104 1806 c-8 -35 -3 -39 54 -46 l47 -5 1 -70 c0 -39 7 -85 16 -105
13 -32 14 -41 0 -82 -8 -26 -31 -80 -51 -120 -44 -90 -92 -122 -181 -123 -104
0 -112 7 -168 168 -28 78 -53 149 -57 158 -5 13 3 18 40 23 40 6 46 10 43 29
-3 19 -12 23 -63 30 -33 4 -89 6 -125 5 -62 -3 -65 -4 -68 -30 -4 -37 29 -68
73 -68 30 0 37 -4 50 -36 8 -20 15 -42 15 -48 0 -6 -21 -41 -47 -76 l-48 -65
-48 9 c-108 21 -221 -29 -287 -127 -82 -121 -60 -286 51 -380 145 -125 378
-71 456 105 l17 38 62 -6 c58 -6 64 -5 88 19 14 14 26 34 26 44 0 10 13 26 29
36 60 35 140 136 193 243 l52 106 14 -41 c13 -40 13 -41 -20 -70 -82 -72 -118
-205 -84 -309 10 -28 35 -71 58 -97 111 -126 286 -138 409 -27 76 68 94 109
94 217 0 80 -3 95 -27 136 -34 57 -88 106 -147 132 -47 20 -135 28 -182 15
-25 -7 -26 -4 -70 115 -39 108 -44 130 -41 194 2 63 -1 75 -21 99 -20 23 -34
28 -85 32 -59 4 -61 4 -68 -22z m-299 -526 c25 -68 45 -125 45 -127 0 -2 -6
-3 -14 -3 -8 0 -24 19 -35 43 -21 43 -68 99 -97 115 -15 8 -12 15 17 55 19 24
35 44 37 42 1 -1 22 -57 47 -125z m791 -25 c69 -61 79 -82 78 -161 -1 -181
-233 -272 -364 -142 -49 49 -63 92 -58 174 3 52 9 70 35 101 16 21 34 37 39
36 5 0 20 -29 33 -62 24 -65 77 -131 104 -131 9 0 21 9 27 20 8 15 5 25 -20
54 -23 26 -80 142 -80 162 0 8 42 12 88 9 48 -3 59 -9 118 -60z m-878 -61 c44
-50 34 -59 -89 -72 -115 -12 -139 -21 -139 -53 0 -29 39 -46 120 -54 110 -9
113 -13 48 -78 -30 -30 -69 -62 -87 -71 -32 -17 -33 -17 -79 13 -63 40 -128
108 -147 153 -8 21 -15 58 -15 83 0 38 5 52 30 77 43 43 90 35 142 -23 37 -41
38 -41 47 -18 9 26 46 63 71 72 28 11 75 -3 98 -29z m312 -26 l-41 -37 -37 17
c-20 9 -38 17 -38 17 -1 0 -4 9 -8 20 -5 19 -1 20 80 20 l86 0 -42 -37z"/>
<path d="M705 745 c-23 -56 -23 -70 2 -73 16 -2 31 9 57 45 20 26 36 51 36 56
0 4 -18 7 -40 7 -36 0 -41 -3 -55 -35z"/>
<path d="M914 766 c-3 -7 -4 -97 -2 -200 3 -174 4 -187 24 -207 14 -13 39 -23
68 -26 l46 -6 0 37 c0 28 -4 36 -18 36 -38 0 -42 18 -42 202 l0 178 -35 0
c-21 0 -38 -6 -41 -14z"/>
<path d="M1347 772 c-3 -4 -4 -34 -4 -67 l2 -60 38 -3 37 -3 0 70 0 71 -34 0
c-19 0 -37 -3 -39 -8z"/>
<path d="M665 641 c-28 -12 -62 -51 -74 -84 -15 -40 -14 -111 3 -152 29 -68
125 -96 202 -59 46 22 50 31 24 59 -21 22 -25 23 -44 10 -28 -21 -80 -19 -99
3 -33 36 -22 42 78 42 l95 0 0 37 c0 44 -32 113 -60 131 -27 16 -100 24 -125
13z m85 -81 c32 -32 24 -40 -35 -40 -59 0 -63 4 -39 38 19 27 48 28 74 2z"/>
<path d="M1152 634 c-47 -24 -64 -54 -69 -127 -7 -78 13 -129 59 -157 67 -40
161 -14 189 53 19 45 16 149 -5 181 -37 58 -115 80 -174 50z m96 -76 c18 -18
15 -123 -4 -142 -19 -20 -35 -20 -59 -2 -23 17 -28 114 -6 139 16 20 52 22 69
5z"/>
<path d="M272 632 c2 -5 27 -74 57 -155 54 -147 54 -147 86 -147 29 0 33 4 52
58 12 31 37 101 57 155 l35 97 -43 0 -42 0 -28 -85 c-15 -47 -29 -85 -31 -85
-2 0 -16 38 -31 85 l-28 85 -44 0 c-24 0 -42 -4 -40 -8z"/>
<path d="M1510 633 c0 -13 53 -157 60 -166 6 -7 70 149 70 169 0 2 -29 4 -65
4 -36 0 -65 -3 -65 -7z"/>
<path d="M1420 482 l0 -152 60 0 c33 0 60 3 60 8 0 9 -109 284 -115 291 -3 2
-5 -64 -5 -147z"/>
<path d="M1709 603 c-5 -16 -30 -79 -55 -141 -24 -62 -44 -117 -44 -122 0 -6
27 -10 60 -10 l60 0 0 150 c0 83 -2 150 -5 150 -3 0 -10 -12 -16 -27z"/>
</g>
</svg>
